<svg id="Capa_1" enable-background="new 0 0 512 512" height="512" viewBox="0 0 512 512" width="512" xmlns="http://www.w3.org/2000/svg"><g><g><path clip-rule="evenodd" d="m53.787 156.506 92.189 58.034c2.379 1.478 2.931 2.29 4.991.29 23.62-22.958 49.272-49.453 72.08-70.731 76.403-71.253-34.27-214.077-127.097-69.543l-47.531 73.977c-2.554 4.001 1.306 5.422 5.368 7.973z" fill="#918291" fill-rule="evenodd"/></g><g><path clip-rule="evenodd" d="m19.953 191.523c-50.897 90.24 69.149 139.809 101.997 62.672 1.103-2.551.696-2.667-1.538-4.087l-91.144-57.367c-4.208-2.638-6.907-5.479-9.315-1.218z" fill="#918291" fill-rule="evenodd"/></g><g><path clip-rule="evenodd" d="m140.289 323.679 68.685 84.471c3.047 3.739 4.904 7.392 8.56 4.377l67.872-55.976c.667-.551 1.335-1.102 2.002-1.681l9.199-142.07c-30.323-13.219-70.571-8.088-95.526 26.002-18.426 25.162-41.669 53.802-61.662 79.949-1.742 2.29-.901 2.754.87 4.928z" fill="#918291" fill-rule="evenodd"/></g><g><path clip-rule="evenodd" d="m103.755 352.232c-72.747 41.801-9.141 154.941 74.459 93.689 3.946-2.899.812-5.247-2.321-9.102l-67.901-83.543c-1.654-2.058-1.828-2.435-4.237-1.044z" fill="#918291" fill-rule="evenodd"/></g><g><path clip-rule="evenodd" d="m316.744 197.697c50.404-29.22 114.968-12.059 144.217 38.293s12.071 114.85-38.332 144.041c-50.404 29.22-114.968 12.088-144.217-38.293-29.221-50.351-12.071-114.85 38.332-144.041z" fill="#faf8f9" fill-rule="evenodd"/></g><g><path clip-rule="evenodd" d="m309.722 333.216c22.285 30.148 64.187 39.366 97.412 20.118 35.634-20.639 47.763-66.267 27.102-101.864-20.69-35.597-66.334-47.714-101.968-27.075-3.569 2.058-6.906 4.377-9.982 6.899 5.601 20.988 3.222 57.281-12.564 101.922z" fill="#bcd0df" fill-rule="evenodd"/></g><g><path clip-rule="evenodd" d="m72.184 409.223c3.83 41.163 50.52 77.369 106.03 36.699 3.946-2.899.812-5.247-2.321-9.102l-8.879-10.928c-42.859 28.61-79.828 11.739-94.83-16.669z" fill="#685d68" fill-rule="evenodd"/></g><g><path clip-rule="evenodd" d="m217.533 412.527 67.872-55.976 2.002-1.681c-3.279-4.087-6.268-8.464-8.995-13.132-4.033-6.928-7.167-14.146-9.46-21.509l-78.696 64.904 18.716 23.016c3.048 3.741 4.905 7.393 8.561 4.378z" fill="#685d68" fill-rule="evenodd"/></g><g><path clip-rule="evenodd" d="m407.134 353.334c35.634-20.639 47.763-66.267 27.102-101.864-15.408-26.553-44.716-40.032-73.385-36.641 20.719 3.826 39.667 16.32 51.071 35.916 20.661 35.626 8.531 81.224-27.102 101.864-9.083 5.276-18.803 8.407-28.611 9.566 16.887 3.102 34.907.435 50.925-8.841z" fill="#81a7c6" fill-rule="evenodd"/></g><g><path clip-rule="evenodd" d="m422.629 380.032c50.403-29.191 67.582-93.689 38.332-144.041-16.714-28.814-45.006-46.758-75.562-51.367 33.573 17.393 56.758 51.975 57.919 92.066 3.511 21.161-2.35 42.96-15.989 59.512-18.89 30.495-52.696 50.816-91.231 50.816-1.77 0-3.511-.058-5.223-.145 28.96 11.45 62.708 10.001 91.754-6.841z" fill="#e5e1e5" fill-rule="evenodd"/></g><g><path clip-rule="evenodd" d="m23.232 273.617c26.406 27.539 78.725 27.539 98.718-19.422 1.103-2.551.696-2.667-1.538-4.087l-23.969-15.074c1.625 1.044 1.857 1.391.871 3.652-14.828 34.844-47.444 43.83-74.082 34.931z" fill="#685d68" fill-rule="evenodd"/></g><g><path clip-rule="evenodd" d="m150.967 214.829c23.62-22.958 49.272-49.453 72.08-70.731 46.457-43.308 23.736-113.082-22.053-128.649 27.538 27.278 34.444 78.644-2.583 113.169-22.808 21.248-48.459 47.743-72.08 70.702-1.393 1.362-2.118 1.42-3.163.841l22.808 14.378c2.379 1.479 2.931 2.291 4.991.29z" fill="#685d68" fill-rule="evenodd"/></g><g><path clip-rule="evenodd" d="m429.652 419.745 24.781-14.349c4.44-2.551 10.185-1.044 12.739 3.392l36.069 62.121c2.583 4.406 1.045 10.146-3.395 12.726l-24.752 14.349c-4.44 2.58-10.185 1.044-12.768-3.392l-36.069-62.092c-2.554-4.435-1.045-10.175 3.395-12.755z" fill="#e7a561" fill-rule="evenodd"/></g><g><path clip-rule="evenodd" d="m503.24 470.909-36.069-62.121c-2.554-4.435-8.299-5.943-12.739-3.392l-12.274 7.131-4.991 2.87c4.44-2.58 10.185-1.044 12.768 3.392l36.04 62.092c2.583 4.435 1.045 10.175-3.366 12.755l17.236-10.001c4.44-2.58 5.978-8.32 3.395-12.726z" fill="#e28424" fill-rule="evenodd"/></g><g><path clip-rule="evenodd" d="m309.722 333.216c36.359-41.482 32.964-78.644 12.565-101.922-27.77 22.756-35.75 62.904-17.12 94.965 1.392 2.435 2.93 4.754 4.555 6.957z" fill="#685d68" fill-rule="evenodd"/></g><g><path d="m73.078 299.585c24.837-2.092 45.158-17.553 55.759-42.423 3.22-7.46-.822-11.117-4.144-13.22l-91.441-57.556c-.561-.352-1.093-.709-1.598-1.048-2.731-1.83-6.47-4.338-11.137-3.231-2.031.482-4.91 1.867-7.094 5.731-22.544 39.97-11.717 68.051-3.256 81.232 12.245 19.077 34.265 30.752 57.246 30.752 1.88.001 3.773-.078 5.665-.237zm-50.291-38.616c-10.917-17.007-10.246-39.001 1.828-62.302.216.141.435.281.658.42l88.241 55.54c-11.658 23.946-30.943 29.106-41.695 30.012-19.507 1.65-38.749-7.649-49.032-23.67z"/><path d="m48.322 161.963c.479.285.976.58 1.471.89l92.226 58.057c.243.151.464.294.667.426 1.058.684 3.362 2.177 6.295 2.177 2.148 0 4.634-.801 7.213-3.305 9.202-8.944 18.862-18.573 28.204-27.886 14.7-14.653 29.9-29.805 43.764-42.738 24.892-23.214 33.919-57.72 23.56-90.052-9.469-29.553-32.361-50.142-59.743-53.733-20.936-2.745-62.553 2.745-105.996 70.389-2.238 3.485-1.227 8.124 2.258 10.362 3.485 2.239 8.125 1.227 10.362-2.258 28.883-44.973 61.356-67.572 91.426-63.622 21.564 2.828 39.731 19.473 47.409 43.439 8.699 27.15 1.407 55.003-19.507 74.508-14.046 13.104-29.336 28.345-44.122 43.084-8.482 8.456-17.229 17.174-25.623 25.37l-90.41-56.914c-.357-.225-.714-.441-1.065-.652l22.885-35.613c2.239-3.484 1.229-8.124-2.255-10.363-3.484-2.24-8.125-1.23-10.363 2.255l-24.88 38.718c-2.285 3.581-2.199 6.714-1.724 8.711 1.115 4.691 5.064 7.037 7.948 8.75z"/><path d="m181.713 432.09-67.875-83.511-.163-.202c-2.476-3.091-6.587-6.725-13.666-2.641-23.446 13.476-36.394 35.47-35.526 60.345.872 24.996 15.689 48.064 37.747 58.769 6.468 3.139 16.107 6.401 28.221 6.401 14.325 0 32.111-4.563 52.204-19.285 3.578-2.629 4.61-5.657 4.845-7.735.541-4.775-2.414-8.201-4.571-10.702-.392-.456-.805-.933-1.216-1.439zm-72.935 19.266c-17.122-8.309-28.625-26.285-29.305-45.798-.375-10.761 2.464-30.486 24.856-44.9l65.746 80.892c.164.202.328.4.491.595-21.731 14.774-43.553 18.059-61.788 9.211z"/><path d="m509.725 467.144-36.055-62.098c-4.617-8.018-14.923-10.779-22.996-6.139l-5.9 3.416-11.924-19.843c22.737-15.256 38.976-37.949 46.072-64.643 7.745-29.136 3.67-59.541-11.475-85.613-31.286-53.856-100.582-72.249-154.461-41.016-6.471 3.748-12.483 8.066-17.985 12.883-15.924-5.892-33.431-7.102-49.836-3.34-20.065 4.6-37.401 16.226-50.128 33.612-5.707 7.771-12.367 16.567-20.957 27.683-2.532 3.277-1.928 7.986 1.348 10.519 1.365 1.055 2.978 1.566 4.581 1.566 2.242 0 4.461-1.002 5.939-2.914 8.666-11.214 15.396-20.103 21.184-27.984 20.519-28.031 51.245-33.759 76.097-27.166-10.614 12.564-18.403 27.424-22.756 43.788-7.754 29.143-3.686 59.561 11.454 85.65 1.634 2.815 3.384 5.521 5.218 8.14l-61.561 50.77c-.258-.33-.521-.663-.792-.995l-67.342-82.82c5.012-6.53 10.482-13.577 16.296-20.991 2.555-3.259 1.985-7.973-1.274-10.529-3.258-2.556-7.973-1.985-10.529 1.274-6.663 8.498-12.881 16.52-18.494 23.859-5.176 6.809-.867 11.942.549 13.629.147.175.307.364.473.569l68.69 84.477c.382.469.742.936 1.09 1.386 2.16 2.794 4.847 6.27 9.63 6.806.342.038.713.061 1.111.061 1.974 0 4.589-.581 7.314-2.828l64.243-52.982c21.691 23.545 52.182 36.414 83.326 36.414 16.915 0 34.019-3.797 50.006-11.73l11.915 19.826-5.899 3.416c-.004.001-.007.003-.01.005-7.998 4.647-10.747 14.956-6.113 23.005l36.072 62.1c3.13 5.373 8.791 8.375 14.597 8.375 2.865 0 5.766-.732 8.413-2.27l24.757-14.352c3.897-2.264 6.676-5.919 7.826-10.291 1.142-4.347.527-8.861-1.714-12.685zm-139.879-80.394c-33.828-.002-66.785-17.491-84.947-48.775-13.128-22.621-16.655-48.995-9.933-74.264 6.724-25.272 22.895-46.411 45.536-59.523.001 0 .002-.001.003-.002 15.436-8.948 32.328-13.201 49.009-13.201 33.829 0 66.79 17.49 84.963 48.773 13.131 22.605 16.664 48.966 9.95 74.226-6.721 25.285-22.9 46.437-45.56 59.56-15.442 8.953-32.335 13.207-49.021 13.206zm127.087 89.264c-.074.282-.284.805-.85 1.133l-24.758 14.353c-.862.498-2.014.186-2.515-.674l-36.054-62.068c-.501-.869-.198-2.025.66-2.527l12.273-7.107c.11-.059.224-.105.332-.17.084-.051.161-.11.243-.163l11.904-6.893c.856-.49 2.027-.197 2.517.654l36.084 62.148c.291.495.25.988.164 1.314z"/><path d="m449.042 309.939c5.634-21.18 2.679-43.282-8.322-62.237-22.727-39.103-73.064-52.471-112.21-29.796-3.797 2.198-7.366 4.676-10.709 7.386-.155.116-.31.232-.458.362-.055.048-.102.101-.154.15-13.048 10.791-22.418 25.31-26.854 41.998-5.63 21.179-2.666 43.278 8.345 62.221 1.482 2.554 3.085 4.994 4.792 7.326.16.242.336.474.526.699 15.833 21.151 40.535 32.835 65.835 32.833 13.972-.001 28.128-3.563 41.059-11.058 18.968-10.986 32.516-28.702 38.15-49.884zm-144.212-38.284c2.973-11.184 8.662-21.173 16.49-29.273 14.356 21.749 10.448 49.957-10.821 78.013-8.033-15.001-10.063-32.21-5.669-48.74zm98.544 75.191c-10.575 6.128-22.141 9.041-33.566 9.04-18.917-.001-37.432-7.992-50.357-22.589 15.546-19.126 24.071-38.403 25.321-57.375 1.037-15.721-3.05-30.474-11.833-43.132 1.01-.658 2.036-1.296 3.087-1.905.001 0 .001-.001.002-.001 10.566-6.12 22.127-9.027 33.546-9.027 23.164 0 45.735 11.971 58.177 33.377 8.987 15.484 11.401 33.543 6.798 50.849-4.604 17.309-15.675 31.785-31.175 40.763z"/></g></g></svg>